<?xml version="1.0"?>
<svg version="1.1" xmlns="http://www.w3.org/2000/svg" width="400" height="200" style=""><path fill="#d44926" d="M17.978515625,119.189453125q0-2.001953125,1.171875-3.4423828125t2.8564453125-2.34375t3.6865234375-1.3427734375t3.7109375-0.439453125q1.318359375,0,3.515625,0.390625t4.296875,1.171875t3.6376953125,2.05078125t1.5380859375,2.978515625q0,0.78125-0.5859375,1.3916015625t-1.220703125,0.6103515625q-1.318359375,0-2.392578125-0.8544921875t-2.2216796875-1.806640625t-2.5146484375-1.806640625t-3.076171875-0.8544921875t-3.1005859375,1.0986328125t-1.3916015625,2.9052734375q0,2.978515625,2.099609375,5.8349609375t4.6142578125,6.005859375t4.6142578125,6.6162109375t2.099609375,7.666015625q0,1.806640625-0.7568359375,3.0517578125t-2.001953125,2.0263671875t-2.8076171875,1.1962890625t-3.02734375,0.4150390625q-1.611328125,0-3.759765625-0.7568359375t-4.052734375-2.001953125t-3.1982421875-2.9052734375t-1.2939453125-3.466796875q0-0.87890625,1.2451171875-1.123046875t1.8310546875-0.244140625q0.29296875,0,0.9033203125,0.1953125t1.1962890625,0.439453125t1.0498046875,0.537109375t0.3662109375,0.634765625q0.48828125,0.5859375,1.4892578125,1.7333984375t2.001953125,1.85546875t1.7578125,0.5126953125t0.7568359375-2.197265625q0-3.80859375-2.05078125-7.0068359375t-4.4677734375-6.25t-4.4677734375-6.0546875t-2.05078125-6.4208984375z M50.38427734375,127.490234375q0-0.9765625,0.2197265625-2.587890625t0.5126953125-3.1982421875t0.68359375-2.9541015625t0.927734375-1.7578125q0.390625-0.390625,1.3427734375-0.78125t2.001953125-0.5615234375t1.953125,0.146484375t1.0986328125,1.2939453125q-0.68359375,0.87890625-1.2451171875,3.0029296875t-0.8544921875,4.7119140625q-0.244140625,2.197265625-0.244140625,4.541015625l0,0.830078125q0.048828125,2.734375,0.48828125,5.029296875t1.3427734375,3.7841796875t2.5146484375,1.4892578125q3.41796875,0,6.25-3.1494140625t5.029296875-7.6904296875t3.857421875-9.6435546875t2.83203125-8.9111328125q0.29296875-1.123046875,1.3916015625-1.513671875t2.3681640625-0.2685546875t2.2705078125,0.6103515625t1.1962890625,1.171875q-0.9765625,8.203125-1.5380859375,16.40625t-0.5615234375,16.50390625q0,1.611328125,0.146484375,2.9541015625t-0.146484375,2.294921875t-1.2939453125,1.513671875t-3.1982421875,0.5615234375q-0.48828125,0-1.2451171875-0.09765625t-1.5625-0.3173828125t-1.3671875-0.6591796875t-0.5615234375-1.025390625q0-3.61328125,0.2685546875-7.421875t0.7568359375-7.373046875q-1.318359375,1.904296875-2.9052734375,3.7841796875t-3.4912109375,3.3935546875t-4.1015625,2.4169921875t-4.736328125,0.9033203125q-3.61328125,0-5.6884765625-1.708984375t-3.125-4.2724609375t-1.318359375-5.5908203125t-0.2685546875-5.859375z M96.3154296875,131.201171875q0-3.80859375,0.8056640625-6.9091796875t2.5634765625-5.2490234375t4.6142578125-3.3447265625t6.9580078125-1.1962890625q2.294921875,0,4.6875,0.6103515625t4.1015625,2.2705078125q0-0.9765625,0.1953125-4.0283203125t0.48828125-7.1044921875t0.6103515625-8.49609375t0.5615234375-8.251953125t0.439453125-6.396484375t0.29296875-2.9296875q0.48828125-1.416015625,1.806640625-1.6845703125t2.490234375-0.2685546875q3.076171875,0,3.7841796875,0.9765625t0.7080078125,3.90625q0,10.693359375-0.9521484375,21.2890625t-0.9521484375,21.2890625q0,6.884765625,0.2685546875,13.8427734375t1.9287109375,13.6962890625l0.537109375,0.48828125l0.29296875,0.87890625l-0.732421875,1.123046875q-1.85546875,1.171875-4.296875,1.171875l-0.1953125,0q-2.490234375,0-4.58984375-1.171875q-0.78125-0.48828125-1.2939453125-2.9052734375t-0.8056640625-5.322265625t-0.439453125-5.5908203125t-0.244140625-3.80859375q-1.708984375,3.90625-4.6630859375,6.7138671875t-7.4462890625,2.8076171875q-3.515625,0-5.76171875-1.513671875t-3.4912109375-3.857421875t-1.7578125-5.2490234375t-0.5126953125-5.7861328125z M102.2236328125,131.494140625q0,1.123046875,0.2685546875,3.3203125t0.8544921875,4.39453125t1.6357421875,3.90625t2.7587890625,1.708984375q2.294921875-1.123046875,4.150390625-3.7353515625t3.1982421875-5.76171875t2.099609375-6.298828125t0.7568359375-5.4443359375q0-2.880859375-2.099609375-4.78515625t-5.029296875-1.904296875q-0.87890625,0-1.7822265625,0.341796875t-1.6845703125,0.78125q-1.806640625,1.708984375-2.8076171875,3.1005859375t-1.513671875,2.880859375t-0.6591796875,3.2958984375t-0.146484375,4.19921875z M142.53955078125,137.109375l0-4.58984375q0-2.490234375,0.1220703125-7.0556640625t0.3173828125-10.009765625t0.537109375-11.3525390625t0.78125-11.1572265625t1.0498046875-9.3994140625t1.3916015625-6.15234375q0.48828125-1.123046875,1.611328125-1.416015625t2.197265625-0.29296875q1.708984375,0,3.0029296875,0.7568359375t1.2939453125,2.7587890625l-0.87890625,0.9765625q-1.708984375,11.279296875-2.197265625,22.65625t-0.68359375,22.75390625q1.220703125-1.904296875,2.7587890625-3.7353515625t3.41796875-3.2470703125t4.052734375-2.2705078125t4.7607421875-0.8544921875q3.3203125,0,5.4931640625,2.001953125t3.5888671875,5.2001953125t2.099609375,7.1533203125t1.0498046875,7.91015625t0.5126953125,7.4951171875t0.439453125,5.8837890625q-0.927734375,1.26953125-2.734375,1.26953125l-0.146484375,0q-0.78125,0-1.708984375-0.1953125t-1.220703125-0.9765625l0.09765625,0.09765625q-0.68359375-1.513671875-0.927734375-4.3701171875t-0.390625-6.298828125t-0.5126953125-7.0556640625t-1.0986328125-6.54296875t-2.1484375-4.833984375t-3.80859375-2.001953125l-0.29296875,0q-2.880859375,0-4.833984375,1.7578125q-2.05078125,1.85546875-3.3203125,4.8828125t-1.953125,6.73828125t-1.0498046875,7.1533203125t-0.5615234375,6.25t-0.48828125,4.1259765625q-0.29296875,1.123046875-1.7333984375,1.4892578125t-2.4658203125,0.3662109375q-2.392578125,0-3.90625-1.3671875q-1.123046875-2.685546875-1.318359375-6.689453125t-0.1953125-7.8125z M189.251953125,133.7890625q0-3.41796875,0.7568359375-8.056640625t2.5634765625-8.7890625t4.7607421875-7.0556640625t7.4462890625-2.9052734375q4.19921875,0,6.298828125,2.4169921875t2.099609375,6.5185546875q0,2.685546875-1.0009765625,5.8837890625t-2.8564453125,6.0546875t-4.39453125,4.7607421875t-5.6640625,1.904296875l-1.26953125-0.09765625q0,1.318359375,0.390625,3.5400390625t1.1474609375,4.4189453125t1.953125,3.857421875t2.9052734375,1.66015625q2.490234375,0,4.78515625-2.001953125t4.345703125-4.443359375t3.80859375-4.443359375t3.22265625-2.001953125q0.78125,0,1.611328125,0.244140625t0.927734375,1.3671875q0,0.68359375-0.3662109375,1.123046875t-0.6591796875,0.9765625q-1.513671875,2.587890625-3.2958984375,4.931640625t-4.0283203125,4.248046875t-4.9072265625,3.0029296875t-5.8837890625,1.0986328125q-4.19921875,0-6.982421875-1.4892578125t-4.4921875-4.00390625t-2.4658203125-5.810546875t-0.7568359375-6.9091796875z M197.9921875,130.078125l1.3671875,1.220703125q0.9765625,0.87890625,1.953125,0.390625t1.7578125-1.7822265625t1.4404296875-3.1982421875t1.171875-3.90625t0.7568359375-3.90625t0.244140625-3.173828125l0-1.66015625t-0.146484375-1.7578125t-0.5126953125-1.3916015625t-1.1474609375-0.7080078125q-0.244140625-0.048828125-0.439453125-0.048828125q-1.66015625,0-2.83203125,2.099609375q-1.26953125,2.34375-2.05078125,5.6884765625t-1.123046875,6.8603515625t-0.439453125,5.2734375z M230.05615234375,133.7890625q0-3.41796875,0.7568359375-8.056640625t2.5634765625-8.7890625t4.7607421875-7.0556640625t7.4462890625-2.9052734375q4.19921875,0,6.298828125,2.4169921875t2.099609375,6.5185546875q0,2.685546875-1.0009765625,5.8837890625t-2.8564453125,6.0546875t-4.39453125,4.7607421875t-5.6640625,1.904296875l-1.26953125-0.09765625q0,1.318359375,0.390625,3.5400390625t1.1474609375,4.4189453125t1.953125,3.857421875t2.9052734375,1.66015625q2.490234375,0,4.78515625-2.001953125t4.345703125-4.443359375t3.80859375-4.443359375t3.22265625-2.001953125q0.78125,0,1.611328125,0.244140625t0.927734375,1.3671875q0,0.68359375-0.3662109375,1.123046875t-0.6591796875,0.9765625q-1.513671875,2.587890625-3.2958984375,4.931640625t-4.0283203125,4.248046875t-4.9072265625,3.0029296875t-5.8837890625,1.0986328125q-4.19921875,0-6.982421875-1.4892578125t-4.4921875-4.00390625t-2.4658203125-5.810546875t-0.7568359375-6.9091796875z M238.79638671875,130.078125l1.3671875,1.220703125q0.9765625,0.87890625,1.953125,0.390625t1.7578125-1.7822265625t1.4404296875-3.1982421875t1.171875-3.90625t0.7568359375-3.90625t0.244140625-3.173828125l0-1.66015625t-0.146484375-1.7578125t-0.5126953125-1.3916015625t-1.1474609375-0.7080078125q-0.244140625-0.048828125-0.439453125-0.048828125q-1.66015625,0-2.83203125,2.099609375q-1.26953125,2.34375-2.05078125,5.6884765625t-1.123046875,6.8603515625t-0.439453125,5.2734375z M270.8603515625,118.115234375q0-2.001953125,0.7080078125-3.369140625t3.0029296875-1.3671875q0.87890625,0,2.197265625,0.2685546875t1.513671875,1.3427734375q0.48828125,2.880859375,0.537109375,6.25t0.341796875,6.34765625q1.123046875-2.197265625,2.880859375-4.736328125t4.00390625-4.6875t4.8828125-3.564453125t5.37109375-1.416015625q0.1953125,0,0.732421875,0.146484375t1.0009765625,0.4150390625t0.5615234375,0.6103515625t-0.537109375,0.634765625q-0.1953125,0.5859375-0.830078125,0.7080078125t-1.123046875,0.1220703125q-0.29296875,0-0.927734375-0.244140625q-3.61328125,1.904296875-6.15234375,5.17578125t-4.150390625,7.2509765625t-2.34375,8.3984375t-0.732421875,8.6181640625q0,2.099609375-0.9521484375,2.5390625t-3.0517578125,0.439453125q-1.123046875,0-2.3681640625-0.244140625t-1.7333984375-1.5625q-0.87890625-2.783203125-1.4404296875-6.396484375t-0.8544921875-7.4462890625t-0.4150390625-7.5439453125t-0.1220703125-6.689453125z"/><path fill="#" d=""/></svg>
